<svg xmlns="http://www.w3.org/2000/svg" xmlns:xlink="http://www.w3.org/1999/xlink" width="2188" zoomAndPan="magnify" viewBox="0 0 1640.88 277.499997" height="370" preserveAspectRatio="xMidYMid meet" version="1.2"><g id="b016575c40"><path style=" stroke:none;fill-rule:nonzero;fill:#000000;fill-opacity:1;" d="M 80.855469 205.621094 C 60.527344 205.621094 43.816406 200.789062 30.726562 191.132812 C 17.621094 181.429688 10.617188 167.578125 9.664062 149.5625 L 61.535156 149.5625 C 62.007812 155.699219 63.789062 160.15625 66.917969 162.945312 C 70.085938 165.757812 74.144531 167.140625 79.117188 167.140625 C 83.589844 167.140625 87.289062 166.035156 90.199219 163.816406 C 93.089844 161.597656 94.554688 158.492188 94.554688 154.472656 C 94.554688 149.363281 92.140625 145.410156 87.347656 142.59375 C 82.542969 139.804688 74.757812 136.65625 63.988281 133.175781 C 52.585938 129.371094 43.339844 125.710938 36.273438 122.167969 C 29.242188 118.585938 23.128906 113.359375 17.898438 106.492188 C 12.714844 99.644531 10.140625 90.65625 10.140625 79.574219 C 10.140625 68.328125 12.929688 58.707031 18.535156 50.671875 C 24.175781 42.652344 31.957031 36.578125 41.894531 32.464844 C 51.8125 28.304688 63.058594 26.207031 75.632812 26.207031 C 96 26.207031 112.257812 30.957031 124.414062 40.457031 C 136.609375 49.960938 143.101562 63.320312 143.890625 80.519531 L 91.074219 80.519531 C 90.914062 75.257812 89.289062 71.296875 86.238281 68.644531 C 83.175781 66.015625 79.230469 64.6875 74.445312 64.6875 C 70.800781 64.6875 67.8125 65.773438 65.496094 67.933594 C 63.15625 70.050781 62.007812 73.117188 62.007812 77.113281 C 62.007812 80.40625 63.277344 83.25 65.808594 85.667969 C 68.382812 88.042969 71.589844 90.101562 75.390625 91.84375 C 79.195312 93.585938 84.816406 95.785156 92.261719 98.414062 C 103.347656 102.21875 112.476562 105.996094 119.664062 109.738281 C 126.886719 113.4375 133.085938 118.644531 138.273438 125.332031 C 143.5 132.042969 146.109375 140.519531 146.109375 150.75 C 146.109375 161.203125 143.5 170.585938 138.273438 178.855469 C 133.085938 187.09375 125.558594 193.628906 115.703125 198.414062 C 105.878906 203.226562 94.257812 205.621094 80.855469 205.621094 Z M 80.855469 205.621094 "/><path style=" stroke:none;fill-rule:nonzero;fill:#000000;fill-opacity:1;" d="M 217.359375 84.003906 C 221.15625 77.574219 226.503906 72.449219 233.433594 68.644531 C 240.402344 64.84375 248.597656 62.945312 258.0625 62.945312 C 269.148438 62.945312 279.164062 65.851562 288.15625 71.652344 C 297.183594 77.414062 304.308594 85.667969 309.539062 96.4375 C 314.761719 107.203125 317.378906 119.773438 317.378906 134.125 C 317.378906 148.53125 314.761719 161.179688 309.539062 172.050781 C 304.308594 182.878906 297.183594 191.191406 288.15625 196.992188 C 279.164062 202.75 269.148438 205.621094 258.0625 205.621094 C 248.597656 205.621094 240.441406 203.71875 233.589844 199.921875 C 226.722656 196.117188 221.320312 191.011719 217.359375 184.558594 L 217.359375 270.386719 L 168.730469 270.386719 L 168.730469 64.6875 L 217.359375 64.6875 Z M 267.960938 134.125 C 267.960938 125.054688 265.507812 118.011719 260.597656 112.984375 C 255.726562 107.914062 249.746094 105.382812 242.617188 105.382812 C 235.53125 105.382812 229.550781 107.957031 224.640625 113.0625 C 219.769531 118.1875 217.359375 125.21875 217.359375 134.125 C 217.359375 143.269531 219.769531 150.394531 224.640625 155.5 C 229.550781 160.625 235.53125 163.183594 242.617188 163.183594 C 249.746094 163.183594 255.726562 160.609375 260.597656 155.421875 C 265.507812 150.195312 267.960938 143.113281 267.960938 134.125 Z M 267.960938 134.125 "/><path style=" stroke:none;fill-rule:nonzero;fill:#000000;fill-opacity:1;" d="M 386.089844 89.230469 C 391.511719 81.316406 398.128906 75.039062 405.886719 70.386719 C 413.6875 65.753906 422.0625 63.421875 430.992188 63.421875 L 430.992188 115.28125 L 417.371094 115.28125 C 406.757812 115.28125 398.875 117.378906 393.769531 121.535156 C 388.640625 125.652344 386.089844 132.839844 386.089844 143.070312 L 386.089844 203.878906 L 337.464844 203.878906 L 337.464844 64.6875 L 386.089844 64.6875 Z M 386.089844 89.230469 "/><path style=" stroke:none;fill-rule:nonzero;fill:#000000;fill-opacity:1;" d="M 634.308594 63.421875 C 650.34375 63.421875 663.078125 68.765625 672.476562 79.410156 C 681.921875 90.082031 686.65625 104.511719 686.65625 122.722656 L 686.65625 203.878906 L 638.027344 203.878906 L 638.027344 129.214844 C 638.027344 121.257812 635.929688 115.003906 631.773438 110.449219 C 627.65625 105.917969 622.113281 103.640625 615.144531 103.640625 C 607.859375 103.640625 602.15625 105.917969 598.039062 110.449219 C 593.917969 115.003906 591.863281 121.257812 591.863281 129.214844 L 591.863281 203.878906 L 543.238281 203.878906 L 543.238281 64.6875 L 591.863281 64.6875 L 591.863281 84.558594 C 596.136719 78.222656 601.921875 73.140625 609.203125 69.277344 C 616.488281 65.382812 624.847656 63.421875 634.308594 63.421875 Z M 634.308594 63.421875 "/><path style=" stroke:none;fill-rule:nonzero;fill:#000000;fill-opacity:1;" d="M 764.773438 62.945312 C 774.21875 62.945312 782.453125 64.84375 789.480469 68.644531 C 796.492188 72.449219 801.914062 77.574219 805.71875 84.003906 L 805.71875 64.6875 L 854.417969 64.6875 L 854.417969 202.375 C 854.417969 215.457031 851.925781 227.257812 846.976562 237.765625 C 842.007812 248.253906 834.265625 256.648438 823.773438 262.941406 C 813.261719 269.21875 799.976562 272.363281 783.9375 272.363281 C 762.398438 272.363281 745.152344 267.316406 732.226562 257.242188 C 719.339844 247.144531 711.992188 233.429688 710.210938 216.074219 L 758.125 216.074219 C 759.070312 220.503906 761.523438 223.949219 765.484375 226.441406 C 769.484375 228.917969 774.632812 230.164062 780.929688 230.164062 C 797.441406 230.164062 805.71875 220.902344 805.71875 202.375 L 805.71875 184.558594 C 801.914062 191.011719 796.492188 196.117188 789.480469 199.921875 C 782.453125 203.71875 774.21875 205.621094 764.773438 205.621094 C 753.6875 205.621094 743.628906 202.75 734.601562 196.992188 C 725.613281 191.191406 718.523438 182.878906 713.300781 172.050781 C 708.074219 161.179688 705.457031 148.53125 705.457031 134.125 C 705.457031 119.773438 708.074219 107.203125 713.300781 96.4375 C 718.523438 85.667969 725.613281 77.414062 734.601562 71.652344 C 743.628906 65.851562 753.6875 62.945312 764.773438 62.945312 Z M 805.71875 134.125 C 805.71875 125.21875 803.261719 118.1875 798.351562 113.0625 C 793.484375 107.957031 787.519531 105.382812 780.453125 105.382812 C 773.167969 105.382812 767.109375 107.914062 762.320312 112.984375 C 757.507812 118.011719 755.113281 125.054688 755.113281 134.125 C 755.113281 143.113281 757.507812 150.195312 762.320312 155.421875 C 767.109375 160.609375 773.167969 163.183594 780.453125 163.183594 C 787.519531 163.183594 793.484375 160.625 798.351562 155.5 C 803.261719 150.394531 805.71875 143.269531 805.71875 134.125 Z M 805.71875 134.125 "/><path style=" stroke:none;fill-rule:nonzero;fill:#000000;fill-opacity:1;" d="M 930.8125 84.003906 C 934.613281 77.414062 939.960938 72.265625 946.890625 68.566406 C 953.859375 64.828125 962.054688 62.945312 971.515625 62.945312 C 982.605469 62.945312 992.621094 65.851562 1001.613281 71.652344 C 1010.640625 77.414062 1017.765625 85.667969 1022.992188 96.4375 C 1028.222656 107.203125 1030.832031 119.773438 1030.832031 134.125 C 1030.832031 148.53125 1028.222656 161.179688 1022.992188 172.050781 C 1017.765625 182.878906 1010.640625 191.191406 1001.613281 196.992188 C 992.621094 202.75 982.605469 205.621094 971.515625 205.621094 C 962.054688 205.621094 953.859375 203.78125 946.890625 200.078125 C 939.960938 196.335938 934.613281 191.167969 930.8125 184.558594 L 930.8125 203.878906 L 882.1875 203.878906 L 882.1875 20.269531 L 930.8125 20.269531 Z M 981.417969 134.125 C 981.417969 125.054688 978.960938 118.011719 974.054688 112.984375 C 969.183594 107.914062 963.199219 105.382812 956.074219 105.382812 C 948.988281 105.382812 943.011719 107.957031 938.097656 113.0625 C 933.230469 118.1875 930.8125 125.21875 930.8125 134.125 C 930.8125 143.269531 933.230469 150.394531 938.097656 155.5 C 943.011719 160.625 948.988281 163.183594 956.074219 163.183594 C 963.199219 163.183594 969.183594 160.609375 974.054688 155.421875 C 978.960938 150.195312 981.417969 143.113281 981.417969 134.125 Z M 981.417969 134.125 "/><path style=" stroke:none;fill-rule:nonzero;fill:#000000;fill-opacity:1;" d="M 1115.621094 205.621094 C 1101.722656 205.621094 1089.273438 202.75 1078.242188 196.992188 C 1067.257812 191.191406 1058.621094 182.894531 1052.34375 172.128906 C 1046.050781 161.359375 1042.925781 148.695312 1042.925781 134.125 C 1042.925781 119.773438 1046.109375 107.203125 1052.507812 96.4375 C 1058.878906 85.667969 1067.570312 77.414062 1078.558594 71.652344 C 1089.527344 65.851562 1102 62.945312 1115.9375 62.945312 C 1129.816406 62.945312 1142.25 65.851562 1153.238281 71.652344 C 1164.261719 77.414062 1172.957031 85.667969 1179.289062 96.4375 C 1185.667969 107.203125 1188.875 119.773438 1188.875 134.125 C 1188.875 148.53125 1185.667969 161.179688 1179.289062 172.050781 C 1172.957031 182.878906 1164.242188 191.191406 1153.160156 196.992188 C 1142.070312 202.75 1129.558594 205.621094 1115.621094 205.621094 Z M 1115.621094 163.417969 C 1122.429688 163.417969 1128.09375 160.925781 1132.648438 155.898438 C 1137.179688 150.828125 1139.460938 143.585938 1139.460938 134.125 C 1139.460938 124.742188 1137.179688 117.554688 1132.648438 112.589844 C 1128.09375 107.636719 1122.527344 105.148438 1115.9375 105.148438 C 1109.285156 105.148438 1103.703125 107.636719 1099.226562 112.589844 C 1094.796875 117.554688 1092.578125 124.742188 1092.578125 134.125 C 1092.578125 143.746094 1094.714844 151.027344 1098.992188 155.976562 C 1103.304688 160.945312 1108.851562 163.417969 1115.621094 163.417969 Z M 1115.621094 163.417969 "/><path style=" stroke:none;fill-rule:nonzero;fill:#000000;fill-opacity:1;" d="M 1200.734375 134.125 C 1200.734375 119.773438 1203.347656 107.203125 1208.574219 96.4375 C 1213.804688 85.667969 1220.890625 77.414062 1229.878906 71.652344 C 1238.90625 65.851562 1248.964844 62.945312 1260.054688 62.945312 C 1269.652344 62.945312 1277.910156 64.84375 1284.835938 68.644531 C 1291.808594 72.449219 1297.191406 77.574219 1300.992188 84.003906 L 1300.992188 64.6875 L 1349.695312 64.6875 L 1349.695312 203.878906 L 1300.992188 203.878906 L 1300.992188 184.558594 C 1297.191406 191.011719 1291.765625 196.117188 1284.757812 199.921875 C 1277.734375 203.71875 1269.496094 205.621094 1260.054688 205.621094 C 1248.964844 205.621094 1238.90625 202.75 1229.878906 196.992188 C 1220.890625 191.191406 1213.804688 182.878906 1208.574219 172.050781 C 1203.347656 161.179688 1200.734375 148.53125 1200.734375 134.125 Z M 1300.992188 134.125 C 1300.992188 125.21875 1298.539062 118.1875 1293.628906 113.0625 C 1288.757812 107.957031 1282.800781 105.382812 1275.730469 105.382812 C 1268.445312 105.382812 1262.386719 107.914062 1257.597656 112.984375 C 1252.785156 118.011719 1250.386719 125.054688 1250.386719 134.125 C 1250.386719 143.113281 1252.785156 150.195312 1257.597656 155.421875 C 1262.386719 160.609375 1268.445312 163.183594 1275.730469 163.183594 C 1282.800781 163.183594 1288.757812 160.625 1293.628906 155.5 C 1298.539062 150.394531 1300.992188 143.269531 1300.992188 134.125 Z M 1300.992188 134.125 "/><path style=" stroke:none;fill-rule:nonzero;fill:#000000;fill-opacity:1;" d="M 1426.09375 89.230469 C 1431.515625 81.316406 1438.128906 75.039062 1445.890625 70.386719 C 1453.691406 65.753906 1462.0625 63.421875 1470.992188 63.421875 L 1470.992188 115.28125 L 1457.371094 115.28125 C 1446.757812 115.28125 1438.882812 117.378906 1433.773438 121.535156 C 1428.644531 125.652344 1426.09375 132.839844 1426.09375 143.070312 L 1426.09375 203.878906 L 1377.464844 203.878906 L 1377.464844 64.6875 L 1426.09375 64.6875 Z M 1426.09375 89.230469 "/><path style=" stroke:none;fill-rule:nonzero;fill:#000000;fill-opacity:1;" d="M 1480.382812 134.125 C 1480.382812 119.773438 1482.996094 107.203125 1488.222656 96.4375 C 1493.453125 85.667969 1500.597656 77.414062 1509.683594 71.652344 C 1518.753906 65.851562 1528.847656 62.945312 1539.9375 62.945312 C 1548.902344 62.945312 1556.90625 64.828125 1563.929688 68.566406 C 1570.941406 72.265625 1576.441406 77.335938 1580.402344 83.769531 L 1580.402344 20.269531 L 1629.34375 20.269531 L 1629.34375 203.878906 L 1580.402344 203.878906 L 1580.402344 184.558594 C 1576.605469 191.011719 1571.21875 196.117188 1564.25 199.921875 C 1557.320312 203.71875 1549.144531 205.621094 1539.699219 205.621094 C 1528.613281 205.621094 1518.554688 202.75 1509.527344 196.992188 C 1500.539062 191.191406 1493.453125 182.878906 1488.222656 172.050781 C 1482.996094 161.179688 1480.382812 148.53125 1480.382812 134.125 Z M 1580.640625 134.125 C 1580.640625 125.21875 1578.1875 118.1875 1573.277344 113.0625 C 1568.40625 107.957031 1562.445312 105.382812 1555.378906 105.382812 C 1548.09375 105.382812 1542.035156 107.914062 1537.246094 112.984375 C 1532.433594 118.011719 1530.035156 125.054688 1530.035156 134.125 C 1530.035156 143.113281 1532.433594 150.195312 1537.246094 155.421875 C 1542.035156 160.609375 1548.09375 163.183594 1555.378906 163.183594 C 1562.445312 163.183594 1568.40625 160.625 1573.277344 155.5 C 1578.1875 150.394531 1580.640625 143.269531 1580.640625 134.125 Z M 1580.640625 134.125 "/><path style=" stroke:none;fill-rule:evenodd;fill:#000000;fill-opacity:1;" d="M 482.453125 4.972656 C 474.515625 6.675781 468.238281 12.8125 466.359375 20.730469 C 465.804688 23.105469 465.804688 27.457031 466.378906 29.972656 C 466.632812 31.0625 467.429688 33.179688 468.179688 34.707031 C 469.347656 37.082031 469.839844 37.773438 471.921875 39.832031 C 473.34375 41.277344 475.03125 42.664062 476.136719 43.296875 C 488.195312 50.320312 503.621094 43.886719 507.0625 30.390625 C 507.792969 27.578125 507.792969 23.246094 507.082031 20.394531 C 505.121094 12.632812 498.785156 6.574219 490.945312 4.953125 C 488.472656 4.441406 484.910156 4.457031 482.453125 4.972656 M 466.199219 62.394531 C 466.101562 62.472656 466.277344 63.1875 466.554688 64 C 467.722656 67.40625 468.261719 72.375 467.863281 76.371094 C 467.707031 77.871094 467.625 79.160156 467.683594 79.199219 C 467.742188 79.257812 469.484375 78.371094 471.566406 77.222656 C 473.644531 76.09375 479.742188 72.90625 485.085938 70.171875 C 493.460938 65.898438 499.695312 62.59375 499.695312 62.414062 C 499.695312 62.300781 466.320312 62.277344 466.179688 62.394531 M 456.398438 63.503906 C 453.746094 65.109375 452.28125 68.808594 452.28125 73.917969 C 452.261719 79.378906 454.144531 83.617188 456.996094 84.546875 C 460.714844 85.773438 463.882812 81.042969 463.882812 74.253906 C 463.902344 70.136719 462.933594 66.652344 461.25 64.753906 C 459.703125 63.011719 457.960938 62.554688 456.398438 63.503906 M 511.417969 63.464844 C 508.867188 64.832031 482.96875 79.992188 464.160156 91.136719 C 460.023438 93.589844 456.199219 96.023438 455.644531 96.542969 C 454.519531 97.628906 453.546875 99.507812 453.15625 101.433594 C 452.105469 106.417969 452.695312 111.03125 454.835938 114.351562 C 456.042969 116.214844 457.074219 116.832031 458.757812 116.710938 C 459.964844 116.613281 462.519531 115.183594 486.019531 101.449219 C 517.773438 82.863281 516.347656 83.753906 517.375 82.25 C 518.863281 80.113281 519.28125 78.488281 519.394531 74.507812 C 519.496094 71.5 519.417969 70.589844 518.941406 68.75 C 518.308594 66.21875 517.320312 64.453125 516.050781 63.625 C 514.960938 62.890625 512.648438 62.8125 511.417969 63.464844 M 512.863281 92.484375 C 512.207031 92.660156 506.648438 95.769531 500.492188 99.371094 C 466.675781 119.164062 457.132812 124.847656 456.183594 125.777344 C 453.648438 128.273438 452.519531 133.773438 453.46875 139.058594 C 454.101562 142.582031 455.46875 144.9375 457.449219 145.890625 C 458.617188 146.460938 458.695312 146.460938 459.824219 146.027344 C 460.933594 145.613281 475.03125 137.472656 503.121094 121.042969 C 510.152344 116.925781 516.328125 113.164062 516.863281 112.652344 C 519.003906 110.613281 519.972656 107.605469 519.972656 103.011719 C 519.972656 99.804688 519.535156 97.488281 518.546875 95.589844 C 517.910156 94.304688 516.03125 92.382812 515.4375 92.382812 C 515.257812 92.382812 514.859375 92.324219 514.582031 92.261719 C 514.289062 92.207031 513.515625 92.304688 512.863281 92.484375 M 513.65625 121.738281 C 512.605469 122.058594 511.875 122.472656 498.6875 130.207031 C 491.777344 134.265625 479.800781 141.296875 472.058594 145.828125 C 464.316406 150.382812 457.546875 154.421875 457.03125 154.835938 C 455.808594 155.785156 454.5 158.261719 454.003906 160.496094 C 453.546875 162.632812 453.511719 166.828125 453.925781 168.75 C 454.535156 171.601562 456.105469 174.308594 457.664062 175.28125 C 458.773438 175.9375 459.703125 175.914062 461.210938 175.140625 C 464.949219 173.242188 516.585938 142.820312 517.398438 142.027344 C 521.96875 137.613281 521.199219 124.449219 516.230469 122.058594 C 515 121.460938 514.703125 121.425781 513.65625 121.738281 M 513.480469 151.25 C 512.761719 151.570312 499.027344 159.605469 464.417969 179.914062 C 460.875 181.992188 457.570312 184.070312 457.09375 184.527344 C 455.863281 185.65625 454.519531 188.523438 454.144531 190.796875 C 453.570312 194.222656 454.203125 198.972656 455.609375 201.746094 C 455.945312 202.398438 456.695312 203.386719 457.292969 203.921875 C 458.238281 204.773438 458.539062 204.894531 459.726562 204.894531 C 461.269531 204.894531 458.378906 206.496094 487.597656 189.472656 C 512.171875 175.164062 517.457031 171.976562 518.285156 170.988281 C 523.140625 165.265625 520.800781 150.796875 515.023438 150.875 C 514.644531 150.875 513.933594 151.054688 513.480469 151.25 M 513.257812 182.648438 C 510.429688 184.207031 509.042969 188.007812 509.257812 193.613281 C 509.476562 198.914062 510.886719 202.242188 513.480469 203.550781 C 515.082031 204.339844 516.210938 204.140625 517.675781 202.835938 C 519.890625 200.855469 520.921875 197.292969 520.703125 192.367188 C 520.503906 187.574219 519.257812 184.566406 516.84375 182.925781 C 515.875 182.289062 514.171875 182.152344 513.257812 182.648438 M 503.796875 188.683594 C 501.601562 190.027344 496.015625 193.058594 488.253906 197.152344 C 481.027344 200.957031 474.277344 204.695312 473.761719 205.191406 C 473.601562 205.347656 474.671875 205.386719 476.671875 205.292969 C 478.398438 205.210938 485.957031 205.074219 493.460938 204.992188 C 503.933594 204.851562 507.082031 204.753906 507.082031 204.496094 C 507.082031 204.320312 506.847656 203.507812 506.546875 202.65625 C 505.636719 200.003906 505.164062 196.796875 505.140625 193.214844 C 505.140625 191.335938 505.21875 189.375 505.320312 188.820312 C 505.441406 188.285156 505.417969 187.851562 505.320312 187.867188 C 505.199219 187.867188 504.507812 188.246094 503.796875 188.683594 "/></g></svg>